PathFileType	4	(X/Y/Z)	Walk6.trc
DataRate	CameraRate	NumFrames	NumMarkers	Units	OrigDataRate	OrigDataStartFrame	OrigNumFrames
200.000000	200.000000	6	61	mm	200.000000	309	449
Frame#	Times		LFHD		RFHD		CLAV		STRN		LASI		RASI		RACR1		RUA1		RFA1		RWRU		RCAR		LACR1		LUA1		LFA1		LWRU		LCAR		RTH3		RTH2		RTH4		RTB3		RTB4		LTH1		LTH3		LTH2		LTH4		LLFC		LTB1		LTB2		LTB4		RTH1		RTB1		RMT5		RMFC		RToe		RMT1		RMMAL		LElbow		RTB2		LBHD		RLFC		LWRR		RLMAL		RCAL		RWRR		RElbow		T10		RBack		RPSI		RBHD		LTB3		LMFC		LPSI		LToe		LLMAL		C7		RElbowM		LCAL		LElbowM		LMT5		LMT1		LMMAL
			X1	Y1	Z1	X2	Y2	Z2	X3	Y3	Z3	X4	Y4	Z4	X5	Y5	Z5	X6	Y6	Z6	X7	Y7	Z7	X8	Y8	Z8	X9	Y9	Z9	X10	Y10	Z10	X11	Y11	Z11	X12	Y12	Z12	X13	Y13	Z13	X14	Y14	Z14	X15	Y15	Z15	X16	Y16	Z16	X17	Y17	Z17	X18	Y18	Z18	X19	Y19	Z19	X20	Y20	Z20	X21	Y21	Z21	X22	Y22	Z22	X23	Y23	Z23	X24	Y24	Z24	X25	Y25	Z25	X26	Y26	Z26	X27	Y27	Z27	X28	Y28	Z28	X29	Y29	Z29	X30	Y30	Z30	X31	Y31	Z31	X32	Y32	Z32	X33	Y33	Z33	X34	Y34	Z34	X35	Y35	Z35	X36	Y36	Z36	X37	Y37	Z37	X38	Y38	Z38	X39	Y39	Z39	X40	Y40	Z40	X41	Y41	Z41	X42	Y42	Z42	X43	Y43	Z43	X44	Y44	Z44	X45	Y45	Z45	X46	Y46	Z46	X47	Y47	Z47	X48	Y48	Z48	X49	Y49	Z49	X50	Y50	Z50	X51	Y51	Z51	X52	Y52	Z52	X53	Y53	Z53	X54	Y54	Z54	X55	Y55	Z55	X56	Y56	Z56	X57	Y57	Z57	X58	Y58	Z58	X59	Y59	Z59	X60	Y60	Z60	X61	Y61	Z61

309	1.545	320.25	1592.6	-1.7804	319.53	1594.2	97.793	282.65	1321.2	45.516	304.6	1187.1	44.29	248.39	909.63	-63.404	277.43	932.05	182.76	225.68	1354.2	216.72	223.9	1184.8	272.86	257.5	898.48	335.23	309.16	784.05	303.49	302.74	719.83	356.03	195.69	1369.6	-101.1	172.63	1194.4	-156.36	176.93	901.46	-191.82	243.22	794.64	-177.06	219.79	724.91	-204.44	237.28	592.59	228.34	289.73	683.99	225.46	235.28	674.39	247.5	219.82	165.46	140.7	239.41	248.6	153	225.37	738.11	-117.03	273.96	575.45	-90.645	303.66	676.5	-90.478	248.43	655.95	-104.73	296.81	446.34	-74.624	269.22	345.45	-7.4379	186.94	304.92	-59.843	199.27	294.56	-1.2736	234.01	759.47	269.61	256.87	333.79	162.24	251.56	23.756	167.09	210.16	438.03	72.41	338.94	27.07	111.43	284.16	33.781	79.541	162.5	85.024	74.234	146.41	1037.5	-169.18	196.12	253.56	196.15	175.83	1532.2	-24.141	246.22	444.06	195.96	174.47	785.01	-174.11	150.61	63.909	154.95	96.757	41.087	111.89	254.78	777.64	344.6	212.68	1021.1	311.34	93.444	1211.3	64.765	98.958	1296.3	135.9	96.09	966.73	125.02	177.46	1540.5	119.73	134.37	240.87	6.0431	293.83	439.61	65.067	82.578	963.16	25.569	129.41	44.828	8.157	17.557	201.52	-35.996	169.4	1422.2	55.42	177.09	1013.2	241.46	-41.529	219.75	7.077	138.74	1022.1	-95.577	62.917	95.049	-37.055	90.907	82.532	37.054	39.89	206.78	44.216
310	1.55	327.37	1593	-1.8564	326.62	1594.6	97.71	289.23	1322	45.474	311.34	1188	44.284	255.26	910.59	-63.417	284.24	932.13	182.68	232.28	1355.3	216.62	231.22	1185.8	272.85	267.1	899.77	334.69	320.14	786.08	302.47	314.56	721.62	354.8	202.03	1370.2	-101.18	178.54	1195	-156.35	179.11	902.03	-191.69	243.27	793.73	-177.36	218.11	724.27	-204.3	241.63	592.55	227.96	294.86	683.49	224.09	240.68	674.29	246.81	220.31	165.49	140.48	240.17	248.55	152.73	233.22	739.37	-117.48	283.91	577.36	-90.879	312.43	678.82	-91.005	257.43	657.51	-105.05	308.62	448.41	-74.591	283.12	347.01	-7.3614	201.63	304.59	-59.572	214.34	294.51	-1.0191	240.62	759.54	268.82	257.88	333.7	161.92	251.61	23.788	166.95	210.95	437.91	72.219	339.21	26.841	111.55	284.33	33.72	79.467	162.76	85.206	74.034	151.38	1038.3	-168.82	196.96	253.67	195.94	182.74	1533.1	-24.288	248.05	443.93	195.73	174.3	785.61	-174.12	150.77	64.186	154.74	96.889	41.485	111.68	265.86	778.9	343.61	220.83	1022.1	311.24	100.28	1211.7	64.997	105.68	1296.9	136.01	102.91	967.29	125	184.34	1541.5	119.59	150.72	239.4	6.4897	305.9	441.94	64.972	89.469	963.91	25.502	151.56	44.225	8.0809	34.726	197.16	-35.278	175.87	1422.8	55.26	185.18	1014.2	241.3	-24.839	213.66	8.0891	143.62	1023.1	-95.242	83.179	92.285	-36.704	111.99	80.573	37.257	57.232	203.07	44.959
311	1.555	334.48	1593.3	-1.9651	333.69	1594.9	97.595	295.82	1322.8	45.446	318.09	1188.9	44.344	262.14	911.46	-63.433	291.01	932.17	182.6	238.87	1356.3	216.53	238.5	1186.9	272.86	276.67	901.01	334.12	331.12	788.11	301.42	326.39	723.39	353.51	208.4	1370.6	-101.26	184.48	1195.5	-156.33	181.32	902.6	-191.57	243.33	792.9	-177.66	216.49	723.74	-204.19	245.96	592.49	227.56	299.96	682.97	222.7	246.07	674.16	246.1	220.8	165.56	140.26	240.92	248.53	152.47	241.05	740.58	-117.97	293.75	579.23	-91.161	321.11	681.06	-91.549	266.37	659.02	-105.4	320.26	450.38	-74.592	296.92	348.53	-7.3091	216.32	304.11	-59.342	229.41	294.37	-0.79273	247.2	759.56	268.03	258.88	333.64	161.62	251.67	23.824	166.81	211.75	437.83	72.044	339.49	26.62	111.67	284.49	33.661	79.394	163.04	85.418	73.826	156.33	1039.1	-168.48	197.78	253.8	195.72	189.66	1533.9	-24.462	249.82	443.82	195.52	174.18	786.26	-174.14	150.92	64.485	154.51	97.034	41.913	111.44	276.95	780.13	342.56	228.93	1022.9	311.13	107.12	1212.1	65.217	112.41	1297.4	136.1	109.72	967.79	124.95	191.23	1542.3	119.41	167.18	237.79	6.8996	317.73	444.23	64.8	96.359	964.59	25.412	173.85	43.553	7.8731	52.11	192.58	-34.61	182.36	1423.3	55.095	193.25	1015.1	241.12	-7.8726	207.3	9.0605	148.48	1024	-94.943	103.63	89.393	-36.44	133.27	78.51	37.36	74.787	199.14	45.649
312	1.56	341.58	1593.6	-2.1056	340.75	1595.3	97.447	302.43	1323.4	45.429	324.84	1189.7	44.465	269.04	912.24	-63.448	297.76	932.16	182.53	245.45	1357.2	216.44	245.76	1187.8	272.88	286.22	902.19	333.55	342.08	790.14	300.33	338.22	725.15	352.16	214.81	1371.1	-101.34	190.44	1195.9	-156.31	183.57	903.17	-191.46	243.41	792.14	-177.97	214.93	723.31	-204.11	250.26	592.42	227.14	305.02	682.43	221.31	251.42	674	245.36	221.29	165.65	140.06	241.66	248.54	152.23	248.86	741.73	-118.47	303.5	581.02	-91.486	329.72	683.2	-92.104	275.25	660.47	-105.8	331.73	452.25	-74.628	310.63	349.99	-7.2867	231.03	303.5	-59.158	244.49	294.14	-0.60078	253.75	759.53	267.24	259.86	333.61	161.33	251.71	23.863	166.65	212.55	437.8	71.886	339.75	26.409	111.78	284.66	33.605	79.322	163.33	85.659	73.607	161.25	1039.8	-168.17	198.57	253.95	195.51	196.58	1534.6	-24.661	251.55	443.73	195.34	174.13	786.94	-174.16	151.07	64.807	154.26	97.19	42.372	111.17	288.05	781.33	341.47	236.97	1023.7	311.02	113.96	1212.5	65.423	119.14	1297.8	136.18	116.51	968.22	124.88	198.11	1543.1	119.19	183.74	236.05	7.2645	329.32	446.47	64.552	103.24	965.2	25.301	196.27	42.828	7.5338	69.716	187.79	-34	188.87	1423.7	54.927	201.32	1015.9	240.91	9.3787	200.68	9.9809	153.32	1024.9	-94.675	124.27	86.394	-36.268	154.73	76.366	37.359	92.558	194.99	46.274
313	1.565	348.67	1593.7	-2.277	347.8	1595.5	97.27	309.05	1324	45.423	331.61	1190.4	44.639	275.93	912.94	-63.464	304.47	932.1	182.48	252.03	1358.1	216.36	252.98	1188.7	272.92	295.74	903.32	332.96	353.04	792.14	299.21	350.05	726.89	350.75	221.25	1371.4	-101.41	196.43	1196.2	-156.28	185.85	903.74	-191.36	243.52	791.44	-178.27	213.45	723	-204.06	254.5	592.34	226.72	310.01	681.86	219.93	256.71	673.82	244.61	221.78	165.76	139.87	242.4	248.57	152.01	256.66	742.81	-118.99	313.14	582.74	-91.847	338.25	685.25	-92.667	284.04	661.86	-106.23	343.03	454.03	-74.7	324.23	351.39	-7.3005	245.75	302.76	-59.026	259.57	293.84	-0.45053	260.22	759.46	266.48	260.82	333.6	161.08	251.76	23.905	166.49	213.37	437.85	71.743	340.01	26.212	111.9	284.83	33.551	79.252	163.65	85.934	73.376	166.15	1040.5	-167.87	199.33	254.13	195.3	203.51	1535.2	-24.885	253.22	443.64	195.17	174.16	787.65	-174.17	151.2	65.155	153.99	97.359	42.865	110.87	299.15	782.5	340.34	244.96	1024.4	310.91	120.8	1212.7	65.614	125.88	1298.2	136.25	123.28	968.58	124.79	205	1543.8	118.94	200.41	234.21	7.5753	340.68	448.62	64.232	110.12	965.75	25.171	218.81	42.072	7.0652	87.549	182.81	-33.455	195.41	1424.1	54.756	209.36	1016.6	240.68	26.922	193.84	10.84	158.15	1025.7	-94.433	145.11	83.312	-36.192	176.38	74.167	37.252	110.55	190.66	46.825
314	1.57	355.75	1593.9	-2.4783	354.83	1595.7	97.062	315.7	1324.5	45.426	338.39	1191.1	44.86	282.84	913.54	-63.477	311.15	931.99	182.43	258.62	1358.8	216.29	260.18	1189.4	272.97	305.23	904.39	332.36	363.98	794.13	298.05	361.89	728.61	349.3	227.73	1371.6	-101.49	202.43	1196.5	-156.24	188.17	904.29	-191.26	243.67	790.8	-178.58	212.05	722.78	-204.04	258.66	592.24	226.29	314.92	681.26	218.6	261.92	673.62	243.87	222.28	165.91	139.7	243.13	248.63	151.81	264.46	743.83	-119.52	322.67	584.37	-92.239	346.72	687.18	-93.235	292.77	663.18	-106.69	354.14	455.7	-74.808	337.72	352.73	-7.357	260.47	301.9	-58.95	274.64	293.46	-0.34976	266.6	759.33	265.75	261.78	333.62	160.86	251.8	23.952	166.31	214.22	437.96	71.612	340.26	26.027	112.02	284.99	33.499	79.183	163.99	86.243	73.131	171.02	1041.1	-167.59	200.06	254.34	195.1	210.44	1535.7	-25.132	254.85	443.57	195.04	174.26	788.38	-174.18	151.33	65.529	153.7	97.538	43.391	110.53	310.25	783.63	339.17	252.9	1025	310.8	127.64	1212.9	65.789	132.63	1298.5	136.31	130.03	968.89	124.67	211.88	1544.4	118.67	217.19	232.27	7.8226	351.82	450.69	63.845	117	966.21	25.023	241.46	41.305	6.4712	105.61	177.68	-32.982	201.98	1424.4	54.585	217.38	1017.3	240.45	44.763	186.81	11.627	162.97	1026.3	-94.212	166.13	80.171	-36.217	198.21	71.939	37.036	128.76	186.17	47.292
